<svg viewBox="0 0 48 56" xmlns="http://www.w3.org/2000/svg">
  <defs>
    <linearGradient id="gGold" x1="0" y1="0" x2="1" y2="1">
      <stop offset="0" stop-color="#fde68a"/><stop offset=".5" stop-color="#eab308"/><stop offset="1" stop-color="#a16207"/>
    </linearGradient>
    <clipPath id="gInner"><path d="M24 6.5 40 11.3V27c0 11.2-6.9 18.6-16 22.6C14.9 45.6 8 38.2 8 27V11.3Z"/></clipPath>
  </defs>
  <path d="M24 1.5 44.5 7.6V27c0 14.2-9 23.4-20.5 27.6C12.5 50.4 3.5 41.2 3.5 27V7.6Z" fill="url(#gGold)"/>
  <g clip-path="url(#gInner)">
    <rect width="48" height="56" fill="#1e3a8a"/>
    <rect width="48" height="15" fill="#fff"/>
    <rect y="15" width="48" height="4.4" fill="#2563eb"/>
    <rect y="19.4" width="48" height="4.4" fill="#dc2626"/>
    <path d="M24 26l1.6 3.3 3.6.5-2.6 2.5.6 3.6-3.2-1.7-3.2 1.7.6-3.6-2.6-2.5 3.6-.5Z" fill="url(#gGold)"/>
  </g>
  <text x="24" y="44" text-anchor="middle" font-family="Arial, Helvetica, sans-serif" font-weight="900" font-size="7.4" fill="#fff">ГИБДД</text>
</svg>
